<svg width="364" height="36" viewBox="0 0 364 36" fill="none" xmlns="http://www.w3.org/2000/svg">
<path d="M1.89631 7.18182H7.58523L13.5938 21.8409H13.8494L19.858 7.18182H25.5469V29H21.0724V14.799H20.8913L15.245 28.8935H12.1982L6.55185 14.7457H6.37074V29H1.89631V7.18182ZM33.9284 29.3089C32.8844 29.3089 31.954 29.1278 31.1373 28.7656C30.3205 28.3963 29.6742 27.853 29.1983 27.1357C28.7296 26.4112 28.4952 25.5092 28.4952 24.4297C28.4952 23.5206 28.6621 22.7571 28.9959 22.1392C29.3297 21.5213 29.7843 21.0241 30.3596 20.6477C30.9348 20.2713 31.5882 19.9872 32.3198 19.7955C33.0584 19.6037 33.8326 19.4688 34.6422 19.3906C35.5939 19.2912 36.361 19.1989 36.9434 19.1136C37.5257 19.0213 37.9483 18.8864 38.2111 18.7088C38.4739 18.5312 38.6053 18.2685 38.6053 17.9205V17.8565C38.6053 17.1818 38.3922 16.6598 37.9661 16.2905C37.5471 15.9212 36.9505 15.7365 36.1763 15.7365C35.3596 15.7365 34.7097 15.9176 34.2267 16.2798C33.7438 16.6349 33.4242 17.0824 33.2679 17.6222L29.0705 17.2812C29.2836 16.2869 29.7026 15.4276 30.3276 14.7031C30.9526 13.9716 31.7587 13.4105 32.7459 13.0199C33.7402 12.6222 34.8908 12.4233 36.1976 12.4233C37.1067 12.4233 37.9767 12.5298 38.8077 12.7429C39.6458 12.956 40.388 13.2862 41.0343 13.7337C41.6877 14.1811 42.2026 14.7564 42.579 15.4595C42.9554 16.1555 43.1436 16.9901 43.1436 17.9631V29H38.8397V26.7308H38.7118C38.449 27.2422 38.0975 27.6932 37.6571 28.0838C37.2168 28.4673 36.6877 28.7692 36.0698 28.9893C35.4519 29.2024 34.7381 29.3089 33.9284 29.3089ZM35.2282 26.1768C35.8958 26.1768 36.4853 26.0455 36.9966 25.7827C37.508 25.5128 37.9093 25.1506 38.2005 24.696C38.4917 24.2415 38.6373 23.7266 38.6373 23.1513V21.4148C38.4952 21.5071 38.2999 21.5923 38.0513 21.6705C37.8098 21.7415 37.5364 21.8089 37.231 21.8729C36.9256 21.9297 36.6202 21.983 36.3148 22.0327C36.0094 22.0753 35.7324 22.1143 35.4838 22.1499C34.9512 22.228 34.486 22.3523 34.0882 22.5227C33.6905 22.6932 33.3816 22.924 33.1614 23.2152C32.9412 23.4993 32.8311 23.8544 32.8311 24.2805C32.8311 24.8984 33.0549 25.3707 33.5023 25.6974C33.9569 26.017 34.5321 26.1768 35.2282 26.1768ZM52.6944 29.2663C51.4515 29.2663 50.3258 28.9467 49.3173 28.3075C48.3159 27.6612 47.5204 26.7131 46.9309 25.4631C46.3485 24.206 46.0574 22.6648 46.0574 20.8395C46.0574 18.9645 46.3592 17.4055 46.9629 16.1626C47.5666 14.9126 48.3691 13.9787 49.3706 13.3608C50.3791 12.7358 51.4835 12.4233 52.6838 12.4233C53.6 12.4233 54.3635 12.5795 54.9743 12.892C55.5922 13.1974 56.0893 13.581 56.4657 14.0426C56.8493 14.4972 57.1404 14.9446 57.3393 15.3849H57.4778V7.18182H62.0055V29H57.5311V26.3793H57.3393C57.1262 26.8338 56.8244 27.2848 56.4338 27.7322C56.0502 28.1726 55.5495 28.5384 54.9316 28.8295C54.3208 29.1207 53.5751 29.2663 52.6944 29.2663ZM54.1326 25.6548C54.8642 25.6548 55.4821 25.456 55.9863 25.0582C56.4977 24.6534 56.8883 24.0888 57.1582 23.3643C57.4352 22.6399 57.5737 21.7912 57.5737 20.8182C57.5737 19.8452 57.4387 19 57.1689 18.2827C56.899 17.5653 56.5083 17.0114 55.997 16.6207C55.4856 16.2301 54.8642 16.0348 54.1326 16.0348C53.3869 16.0348 52.7583 16.2372 52.247 16.642C51.7356 17.0469 51.3485 17.608 51.0858 18.3253C50.823 19.0426 50.6916 19.8736 50.6916 20.8182C50.6916 21.7699 50.823 22.6115 51.0858 23.343C51.3556 24.0675 51.7427 24.6357 52.247 25.0476C52.7583 25.4524 53.3869 25.6548 54.1326 25.6548ZM73.1942 29.3196C71.511 29.3196 70.0621 28.9787 68.8477 28.2969C67.6403 27.608 66.7099 26.6349 66.0565 25.3778C65.4031 24.1136 65.0763 22.6186 65.0763 20.8928C65.0763 19.2095 65.4031 17.7322 66.0565 16.4609C66.7099 15.1896 67.6296 14.1989 68.8157 13.4886C70.0089 12.7784 71.408 12.4233 73.0131 12.4233C74.0927 12.4233 75.0977 12.5973 76.0281 12.9453C76.9656 13.2862 77.7823 13.8011 78.4783 14.4901C79.1815 15.179 79.7283 16.0455 80.119 17.0895C80.5096 18.1264 80.7049 19.3409 80.7049 20.733V21.9794H66.8874V19.1669H76.4329C76.4329 18.5135 76.2908 17.9347 76.0067 17.4304C75.7227 16.9261 75.3285 16.532 74.8242 16.2479C74.3271 15.9567 73.7482 15.8111 73.0877 15.8111C72.3988 15.8111 71.788 15.9709 71.2553 16.2905C70.7298 16.603 70.3178 17.0256 70.0195 17.5582C69.7212 18.0838 69.5685 18.6697 69.5614 19.3161V21.9901C69.5614 22.7997 69.7106 23.4993 70.0089 24.0888C70.3143 24.6783 70.744 25.1328 71.2979 25.4524C71.8519 25.772 72.5089 25.9318 73.2688 25.9318C73.7731 25.9318 74.2347 25.8608 74.6538 25.7188C75.0728 25.5767 75.4315 25.3636 75.7298 25.0795C76.0281 24.7955 76.2553 24.4474 76.4116 24.0355L80.609 24.3125C80.396 25.321 79.9592 26.2017 79.2987 26.9545C78.6452 27.7003 77.8001 28.2827 76.7631 28.7017C75.7333 29.1136 74.5437 29.3196 73.1942 29.3196ZM93.8379 29L89.3848 12.6364H93.9764L96.5119 23.6307H96.661L99.3031 12.6364H103.809L106.494 23.5668H106.633L109.126 12.6364H113.706L109.264 29H104.459L101.647 18.7088H101.444L98.6319 29H93.8379ZM116.127 29V12.6364H120.666V29H116.127ZM118.407 10.527C117.733 10.527 117.154 10.3033 116.671 9.85582C116.195 9.40128 115.957 8.85795 115.957 8.22585C115.957 7.60085 116.195 7.06463 116.671 6.61719C117.154 6.16264 117.733 5.93537 118.407 5.93537C119.082 5.93537 119.657 6.16264 120.133 6.61719C120.616 7.06463 120.858 7.60085 120.858 8.22585C120.858 8.85795 120.616 9.40128 120.133 9.85582C119.657 10.3033 119.082 10.527 118.407 10.527ZM133.005 12.6364V16.0455H123.151V12.6364H133.005ZM125.388 8.71591H129.926V23.9716C129.926 24.3906 129.99 24.7173 130.118 24.9517C130.246 25.179 130.423 25.3388 130.651 25.4311C130.885 25.5234 131.155 25.5696 131.46 25.5696C131.673 25.5696 131.887 25.5518 132.1 25.5163C132.313 25.4737 132.476 25.4418 132.59 25.4205L133.303 28.7976C133.076 28.8686 132.757 28.9503 132.345 29.0426C131.933 29.142 131.432 29.2024 130.843 29.2237C129.749 29.2663 128.79 29.1207 127.966 28.7869C127.149 28.4531 126.514 27.9347 126.059 27.2315C125.605 26.5284 125.381 25.6406 125.388 24.5682V8.71591ZM140.851 19.5398V29H136.313V7.18182H140.724V15.5234H140.915C141.285 14.5575 141.881 13.8011 142.705 13.2543C143.529 12.7003 144.562 12.4233 145.805 12.4233C146.942 12.4233 147.932 12.6719 148.778 13.169C149.63 13.6591 150.29 14.3658 150.759 15.2891C151.235 16.2053 151.469 17.3026 151.462 18.581V29H146.924V19.3906C146.931 18.3821 146.675 17.5973 146.157 17.0362C145.645 16.4751 144.928 16.1946 144.005 16.1946C143.387 16.1946 142.84 16.326 142.364 16.5888C141.895 16.8516 141.526 17.2351 141.256 17.7393C140.993 18.2365 140.858 18.8366 140.851 19.5398Z" fill="white"/>
<path d="M167.957 6.65231C172.622 4.32031 176.457 7.15231 177.957 9.15231C179.457 7.15231 183.292 4.32031 187.957 6.65231C193.957 9.65231 192.457 17.1523 187.957 21.6523C185.761 23.8483 181.894 27.7153 179.066 29.8663C178.75 30.1063 178.363 30.2328 177.966 30.2253C177.57 30.2179 177.187 30.077 176.88 29.8253C174.287 27.7323 170.122 23.8173 167.957 21.6523C163.457 17.1523 161.957 9.65231 167.957 6.65231Z" fill="#F8312F"/>
<path d="M177.957 9.15237V12.2024C179.227 9.51737 182.382 5.93237 187.615 6.48937C183.105 4.45937 179.42 7.20138 177.957 9.15237ZM173.903 6.18938C172.217 5.60238 170.182 5.53937 167.957 6.65237C161.957 9.65237 163.457 17.1524 167.957 21.6524C170.122 23.8174 174.287 27.7324 176.88 29.8254C177.187 30.0769 177.57 30.2176 177.966 30.2249C178.363 30.2321 178.751 30.1055 179.066 29.8654C179.32 29.6724 179.582 29.4654 179.851 29.2474C176.997 27.1044 172.991 23.7284 170.816 21.7854C165.859 17.3544 164.206 9.97037 170.816 7.01637C171.793 6.57203 172.836 6.29258 173.903 6.18938Z" fill="#CA0B4A"/>
<path d="M183.044 17.3869C184.4 18.1701 186.57 16.9512 187.89 14.6645C189.211 12.3777 189.181 9.88913 187.825 9.10599C186.468 8.32285 184.299 9.54174 182.978 11.8285C181.658 14.1152 181.687 16.6038 183.044 17.3869Z" fill="#F37366"/>
<path d="M203.811 29V7.18182H212.547C214.152 7.18182 215.491 7.41974 216.563 7.8956C217.636 8.37145 218.442 9.03196 218.982 9.87713C219.521 10.7152 219.791 11.6811 219.791 12.7749C219.791 13.6271 219.621 14.3764 219.28 15.0227C218.939 15.6619 218.47 16.1875 217.874 16.5994C217.284 17.0043 216.609 17.2919 215.849 17.4624V17.6754C216.68 17.7109 217.458 17.9453 218.183 18.3786C218.914 18.8118 219.507 19.419 219.962 20.2003C220.416 20.9744 220.643 21.8977 220.643 22.9702C220.643 24.1278 220.356 25.1612 219.781 26.0703C219.212 26.9723 218.371 27.6861 217.256 28.2116C216.141 28.7372 214.766 29 213.133 29H203.811ZM208.424 25.2287H212.185C213.47 25.2287 214.408 24.9837 214.997 24.4936C215.587 23.9964 215.881 23.3359 215.881 22.5121C215.881 21.9084 215.736 21.3757 215.445 20.9141C215.153 20.4524 214.738 20.0902 214.198 19.8274C213.666 19.5646 213.03 19.4332 212.291 19.4332H208.424V25.2287ZM208.424 16.3118H211.844C212.476 16.3118 213.037 16.2017 213.527 15.9815C214.024 15.7543 214.415 15.4347 214.699 15.0227C214.99 14.6108 215.136 14.1172 215.136 13.5419C215.136 12.7536 214.855 12.1179 214.294 11.6349C213.74 11.152 212.952 10.9105 211.929 10.9105H208.424V16.3118ZM226.362 35.1364C225.786 35.1364 225.247 35.0902 224.742 34.9979C224.245 34.9126 223.833 34.8026 223.507 34.6676L224.529 31.2798C225.062 31.4432 225.541 31.532 225.968 31.5462C226.401 31.5604 226.774 31.4609 227.086 31.2479C227.406 31.0348 227.665 30.6726 227.864 30.1612L228.13 29.4688L222.26 12.6364H227.033L230.421 24.6534H230.591L234.011 12.6364H238.816L232.455 30.7685C232.15 31.6491 231.735 32.4162 231.209 33.0696C230.691 33.7301 230.034 34.2379 229.238 34.593C228.443 34.9553 227.484 35.1364 226.362 35.1364ZM248.167 29V7.18182H256.775C258.429 7.18182 259.839 7.49787 261.004 8.12997C262.169 8.75497 263.056 9.625 263.667 10.7401C264.285 11.848 264.594 13.1264 264.594 14.5753C264.594 16.0241 264.282 17.3026 263.657 18.4105C263.032 19.5185 262.126 20.3814 260.94 20.9993C259.761 21.6172 258.333 21.9261 256.657 21.9261H251.171V18.2294H255.912C256.799 18.2294 257.531 18.0767 258.106 17.7713C258.689 17.4588 259.122 17.0291 259.406 16.4822C259.697 15.9283 259.843 15.2926 259.843 14.5753C259.843 13.8509 259.697 13.2187 259.406 12.679C259.122 12.1321 258.689 11.7095 258.106 11.4112C257.524 11.1058 256.785 10.9531 255.89 10.9531H252.779V29H248.167ZM271.732 29.3089C270.688 29.3089 269.757 29.1278 268.941 28.7656C268.124 28.3963 267.478 27.853 267.002 27.1357C266.533 26.4112 266.299 25.5092 266.299 24.4297C266.299 23.5206 266.466 22.7571 266.799 22.1392C267.133 21.5213 267.588 21.0241 268.163 20.6477C268.738 20.2713 269.392 19.9872 270.123 19.7955C270.862 19.6037 271.636 19.4688 272.446 19.3906C273.397 19.2912 274.164 19.1989 274.747 19.1136C275.329 19.0213 275.752 18.8864 276.015 18.7088C276.277 18.5312 276.409 18.2685 276.409 17.9205V17.8565C276.409 17.1818 276.196 16.6598 275.77 16.2905C275.351 15.9212 274.754 15.7365 273.98 15.7365C273.163 15.7365 272.513 15.9176 272.03 16.2798C271.547 16.6349 271.228 17.0824 271.071 17.6222L266.874 17.2812C267.087 16.2869 267.506 15.4276 268.131 14.7031C268.756 13.9716 269.562 13.4105 270.549 13.0199C271.544 12.6222 272.694 12.4233 274.001 12.4233C274.91 12.4233 275.78 12.5298 276.611 12.7429C277.449 12.956 278.191 13.2862 278.838 13.7337C279.491 14.1811 280.006 14.7564 280.382 15.4595C280.759 16.1555 280.947 16.9901 280.947 17.9631V29H276.643V26.7308H276.515C276.253 27.2422 275.901 27.6932 275.461 28.0838C275.02 28.4673 274.491 28.7692 273.873 28.9893C273.255 29.2024 272.542 29.3089 271.732 29.3089ZM273.032 26.1768C273.699 26.1768 274.289 26.0455 274.8 25.7827C275.311 25.5128 275.713 25.1506 276.004 24.696C276.295 24.2415 276.441 23.7266 276.441 23.1513V21.4148C276.299 21.5071 276.103 21.5923 275.855 21.6705C275.613 21.7415 275.34 21.8089 275.034 21.8729C274.729 21.9297 274.424 21.983 274.118 22.0327C273.813 22.0753 273.536 22.1143 273.287 22.1499C272.755 22.228 272.289 22.3523 271.892 22.5227C271.494 22.6932 271.185 22.924 270.965 23.2152C270.745 23.4993 270.635 23.8544 270.635 24.2805C270.635 24.8984 270.858 25.3707 271.306 25.6974C271.76 26.017 272.336 26.1768 273.032 26.1768ZM284.468 29V12.6364H288.868V15.4915H289.038C289.337 14.4759 289.837 13.7088 290.541 13.1903C291.244 12.6648 292.053 12.402 292.969 12.402C293.197 12.402 293.442 12.4162 293.705 12.4446C293.967 12.473 294.198 12.5121 294.397 12.5618V16.5888C294.184 16.5249 293.889 16.468 293.513 16.4183C293.136 16.3686 292.792 16.3438 292.479 16.3438C291.812 16.3438 291.215 16.4893 290.69 16.7805C290.171 17.0646 289.759 17.4624 289.454 17.9737C289.156 18.4851 289.006 19.0746 289.006 19.7422V29H284.468ZM296.743 29V12.6364H301.143V15.4915H301.314C301.612 14.4759 302.113 13.7088 302.816 13.1903C303.519 12.6648 304.329 12.402 305.245 12.402C305.472 12.402 305.717 12.4162 305.98 12.4446C306.243 12.473 306.474 12.5121 306.672 12.5618V16.5888C306.459 16.5249 306.165 16.468 305.788 16.4183C305.412 16.3686 305.067 16.3438 304.755 16.3438C304.087 16.3438 303.491 16.4893 302.965 16.7805C302.447 17.0646 302.035 17.4624 301.729 17.9737C301.431 18.4851 301.282 19.0746 301.282 19.7422V29H296.743ZM312.319 35.1364C311.743 35.1364 311.204 35.0902 310.699 34.9979C310.202 34.9126 309.79 34.8026 309.464 34.6676L310.486 31.2798C311.019 31.4432 311.498 31.532 311.925 31.5462C312.358 31.5604 312.731 31.4609 313.043 31.2479C313.363 31.0348 313.622 30.6726 313.821 30.1612L314.087 29.4688L308.217 12.6364H312.99L316.378 24.6534H316.548L319.968 12.6364H324.773L318.412 30.7685C318.107 31.6491 317.692 32.4162 317.166 33.0696C316.648 33.7301 315.991 34.2379 315.195 34.593C314.4 34.9553 313.441 35.1364 312.319 35.1364Z" fill="white"/>
</svg>
